FFmpeg version SVN-r25716, Copyright (c) 2000-2010 the FFmpeg developers  built on Nov 10 2010 12:23:18 with gcc 4.1.2 20080704 (Red Hat 4.1.2-48)  configuration: --enable-libmp3lame --enable-shared --disable-mmx --arch=x86_64  libavutil     50.33. 0 / 50.33. 0  libavcore      0.12. 1 /  0.12. 1  libavcodec    52.94. 4 / 52.94. 4  libavformat   52.84. 0 / 52.84. 0  libavdevice   52. 2. 2 / 52. 2. 2  libavfilter    1.59. 0 /  1.59. 0  libswscale     0.12. 0 /  0.12. 0Seems stream 0 codec frame rate differs from container frame rate: 2000000.00 (2000000/1) -> 15.50 (250000/16129)Input #0, mov,mp4,m4a,3gp,3g2,mj2, from '/RAID10/data/converted_video_files/8073.mov':  Metadata:    major_brand     : qt      minor_version   : 537199360    compatible_brands: qt    Duration: 00:00:25.99, start: 0.000000, bitrate: 598 kb/s    Stream #0.0(eng): Video: h264, yuv420p, 298x504, 595 kb/s, 15.50 fps, 15.50 tbr, 1000k tbn, 2000k tbc[buffer @ 0xdd1e9a0] w:298 h:504 pixfmt:yuv420pOutput #0, flv, to '/RAID10/data/converted_video_files/8073.flv':  Metadata:    encoder         : Lavf52.84.0    Stream #0.0(eng): Video: flv, yuv420p, 298x504, q=2-31, 600 kb/s, 1k tbn, 24 tbcStream mapping:  Stream #0.0 -> #0.0Press [q] to stop encodingframe=   59 fps=  0 q=6.2 size=     306kB time=3.79 bitrate= 661.0kbits/s    frame=  119 fps=118 q=6.7 size=     554kB time=7.67 bitrate= 591.6kbits/s    frame=  177 fps=117 q=4.7 size=     807kB time=11.38 bitrate= 581.2kbits/s    frame=  231 fps=115 q=8.2 size=    1089kB time=14.88 bitrate= 599.7kbits/s    frame=  289 fps=115 q=5.3 size=    1359kB time=18.62 bitrate= 597.6kbits/s    frame=  347 fps=115 q=7.4 size=    1620kB time=22.37 bitrate= 593.2kbits/s    frame=  400 fps=113 q=7.8 size=    1891kB time=25.79 bitrate= 600.7kbits/s    frame=  403 fps=113 q=8.2 Lsize=    1902kB time=25.96 bitrate= 600.3kbits/s    video:1896kB audio:0kB global headers:0kB muxing overhead 0.342988%